<svg xmlns="http://www.w3.org/2000/svg" width="29.093" height="33.91" viewBox="0 0 29.093 33.91">
  <metadata><?xpacket begin="﻿" id="W5M0MpCehiHzreSzNTczkc9d"?>
<x:xmpmeta xmlns:x="adobe:ns:meta/" x:xmptk="Adobe XMP Core 5.6-c138 79.159824, 2016/09/14-01:09:01        ">
   <rdf:RDF xmlns:rdf="http://www.w3.org/1999/02/22-rdf-syntax-ns#">
      <rdf:Description rdf:about=""/>
   </rdf:RDF>
</x:xmpmeta>
                                                                                                    
                                                                                                    
                                                                                                    
                                                                                                    
                                                                                                    
                                                                                                    
                                                                                                    
                                                                                                    
                                                                                                    
                                                                                                    
                                                                                                    
                                                                                                    
                                                                                                    
                                                                                                    
                                                                                                    
                                                                                                    
                                                                                                    
                                                                                                    
                                                                                                    
                                                                                                    
                           
<?xpacket end="w"?></metadata>
<defs>
    <style>
      .cls-1 {
        fill: #fff;
        fill-rule: evenodd;
      }
    </style>
  </defs>
  <path id="Apple_Logo" data-name="Apple Logo" class="cls-1" d="M540.06,7484.98a24.112,24.112,0,0,1-2.2,4.11c-1.427,2.18-3.439,4.89-5.932,4.92-2.216.02-2.784-1.45-5.791-1.43s-3.634,1.45-5.85,1.43c-2.494-.02-4.4-2.47-5.828-4.65-3.992-6.09-4.409-13.24-1.947-17.04a8.829,8.829,0,0,1,7.105-4.28c2.643,0,4.3,1.45,6.489,1.45,2.119,0,3.41-1.45,6.465-1.45a8.618,8.618,0,0,1,6.5,3.44,7.461,7.461,0,0,0,.987,13.5h0Zm-9.8-19.38a7.418,7.418,0,0,0,1.647-5.5,7.973,7.973,0,0,0-5.173,2.79,6.9,6.9,0,0,0-1.69,5.37,6.77,6.77,0,0,0,5.216-2.66h0Z" transform="translate(-510.969 -7460.09)"/>
</svg>
