<svg xmlns="http://www.w3.org/2000/svg" width="18" height="18" viewBox="0 0 18 18">
  <metadata><?xpacket begin="﻿" id="W5M0MpCehiHzreSzNTczkc9d"?>
<x:xmpmeta xmlns:x="adobe:ns:meta/" x:xmptk="Adobe XMP Core 5.6-c138 79.159824, 2016/09/14-01:09:01        ">
   <rdf:RDF xmlns:rdf="http://www.w3.org/1999/02/22-rdf-syntax-ns#">
      <rdf:Description rdf:about=""/>
   </rdf:RDF>
</x:xmpmeta>
                                                                                                    
                                                                                                    
                                                                                                    
                                                                                                    
                                                                                                    
                                                                                                    
                                                                                                    
                                                                                                    
                                                                                                    
                                                                                                    
                                                                                                    
                                                                                                    
                                                                                                    
                                                                                                    
                                                                                                    
                                                                                                    
                                                                                                    
                                                                                                    
                                                                                                    
                                                                                                    
                           
<?xpacket end="w"?></metadata>
<defs>
    <style>
      .cls-1 {
        fill: #fff;
        fill-rule: evenodd;
      }
    </style>
  </defs>
  <path id="Globe_1" data-name="Globe 1" class="cls-1" d="M1480.87,46.687a7.558,7.558,0,0,0-1.66-1.079l0.03-.1a13.1,13.1,0,0,0,.47-1.992,2.554,2.554,0,0,1,.04-0.27c0.03-.268.06-0.539,0.09-0.817,0.01-.1.02-0.2,0.02-0.31,0.02-.231.02-0.468,0.03-0.7h3.27A8.117,8.117,0,0,1,1480.87,46.687Zm-3.44,2.132a6.548,6.548,0,0,0,.5-0.613c0.02-.021.03-0.041,0.05-0.063a9.154,9.154,0,0,0,.87-1.567,0.4,0.4,0,0,1,.04-0.1,0.513,0.513,0,0,1,.04-0.111,6.991,6.991,0,0,1,1.35.873A8.177,8.177,0,0,1,1477.43,48.819Zm-2.02.325V45.522a9.184,9.184,0,0,1,2.8.539C1477.54,47.76,1476.54,48.919,1475.41,49.144Zm0-7.731h3.67a14.726,14.726,0,0,1-.61,3.88,9.975,9.975,0,0,0-3.06-.59v-3.29Zm0-4.109a9.957,9.957,0,0,0,3.06-.59,14.734,14.734,0,0,1,.61,3.88h-3.67V37.3Zm0-4.441c1.13,0.226,2.13,1.384,2.8,3.084a9.262,9.262,0,0,1-2.8.54V32.863Zm4.87,1.9a6.911,6.911,0,0,1-1.35.871,0.491,0.491,0,0,1-.04-0.109,0.408,0.408,0,0,1-.04-0.1,9.221,9.221,0,0,0-.87-1.568c-0.02-.021-0.03-0.041-0.05-0.063a6.73,6.73,0,0,0-.5-0.611A8.166,8.166,0,0,1,1480.28,34.767Zm2.88,5.828h-3.27c-0.01-.235-0.01-0.472-0.03-0.7,0-.1-0.01-0.207-0.02-0.311q-0.045-.415-0.09-0.817a2.576,2.576,0,0,1-.04-0.269,13.109,13.109,0,0,0-.47-1.993l-0.03-.1a7.578,7.578,0,0,0,1.66-1.08A8.116,8.116,0,0,1,1483.16,40.595Zm-8.57-4.108a9.143,9.143,0,0,1-2.8-.54c0.66-1.7,1.66-2.857,2.8-3.084v3.624Zm0,4.108h-3.67a14.345,14.345,0,0,1,.6-3.88,9.964,9.964,0,0,0,3.07.59v3.291Zm0,4.109a9.982,9.982,0,0,0-3.07.59,14.337,14.337,0,0,1-.6-3.879h3.67V44.7Zm0,4.441c-1.14-.225-2.14-1.384-2.8-3.083a9.067,9.067,0,0,1,2.8-.539v3.622Zm-4.88-1.9a6.776,6.776,0,0,1,1.36-.873,0.475,0.475,0,0,0,.04.111,0.389,0.389,0,0,0,.04.1,7.973,7.973,0,0,0,.87,1.567c0.01,0.021.03,0.042,0.04,0.063a5.333,5.333,0,0,0,.51.613A8.222,8.222,0,0,1,1469.71,47.242Zm-2.88-5.828h3.27c0.01,0.235.01,0.472,0.03,0.7,0.01,0.1.02,0.207,0.03,0.31,0.02,0.277.05,0.549,0.09,0.817a2.479,2.479,0,0,0,.04.27,13.1,13.1,0,0,0,.46,1.992l0.03,0.1a7.8,7.8,0,0,0-1.66,1.079A8.167,8.167,0,0,1,1466.83,41.413Zm2.29-6.092a7.823,7.823,0,0,0,1.66,1.08l-0.03.1a13.115,13.115,0,0,0-.46,1.993,2.421,2.421,0,0,0-.04.269q-0.06.4-.09,0.817c-0.01.1-.02,0.206-0.03,0.311-0.02.23-.02,0.467-0.03,0.7h-3.27A8.166,8.166,0,0,1,1469.12,35.322Zm3.45-2.132a5.452,5.452,0,0,0-.51.611c-0.01.021-.03,0.041-0.04,0.063a8.024,8.024,0,0,0-.87,1.568,0.392,0.392,0,0,0-.04.1,0.474,0.474,0,0,0-.04.109,6.7,6.7,0,0,1-1.36-.871A8.21,8.21,0,0,1,1472.57,33.19ZM1475,32a9,9,0,1,0,9,9A9,9,0,0,0,1475,32Z" transform="translate(-1466 -32)"/>
</svg>
